<mxfile host="app.diagrams.net" modified="2024-01-15T17:14:56.196Z" agent="Mozilla/5.0 (X11; Linux x86_64) AppleWebKit/537.36 (KHTML, like Gecko) Chrome/111.0.0.0 Safari/537.36" version="22.1.18" etag="iByVj6x23KLZUvl5ZdX0" type="github">
  <diagram name="Page-1" id="0MJ0dJ-YVsraE9Je9Vf9">
    <mxGraphModel>
      <root>
        <mxCell id="0" />
        <mxCell id="1" parent="0" />
      </root>
    </mxGraphModel>
  </diagram>
</mxfile>
